<svg width="31" height="31" viewBox="0 0 31 31" fill="none" xmlns="http://www.w3.org/2000/svg">
<path d="M15.4023 25.7188C12.6107 25.7188 10.2461 24.75 8.30859 22.8125C6.37109 20.875 5.40234 18.5104 5.40234 15.7188C5.40234 12.9271 6.37109 10.5625 8.30859 8.625C10.2461 6.6875 12.6107 5.71875 15.4023 5.71875C16.8398 5.71875 18.2148 6.01562 19.5273 6.60938C20.8398 7.20312 21.9648 8.05208 22.9023 9.15625V5.71875H25.4023V14.4688H16.6523V11.9688H21.9023C21.2357 10.8021 20.3242 9.88542 19.168 9.21875C18.0117 8.55208 16.7565 8.21875 15.4023 8.21875C13.319 8.21875 11.5482 8.94792 10.0898 10.4062C8.63151 11.8646 7.90234 13.6354 7.90234 15.7188C7.90234 17.8021 8.63151 19.5729 10.0898 21.0312C11.5482 22.4896 13.319 23.2188 15.4023 23.2188C17.0065 23.2188 18.4544 22.7604 19.7461 21.8438C21.0378 20.9271 21.944 19.7188 22.4648 18.2188H25.0898C24.5065 20.4271 23.319 22.2292 21.5273 23.625C19.7357 25.0208 17.694 25.7188 15.4023 25.7188Z" fill="#F3F3F4"/>
</svg>
