<svg width="31" height="31" viewBox="0 0 31 31" fill="none" xmlns="http://www.w3.org/2000/svg">
<path d="M24.6094 26.418L16.7344 18.543C16.1094 19.043 15.3906 19.4388 14.5781 19.7305C13.7656 20.0221 12.901 20.168 11.9844 20.168C9.71354 20.168 7.79167 19.3815 6.21875 17.8086C4.64583 16.2357 3.85938 14.3138 3.85938 12.043C3.85938 9.77214 4.64583 7.85026 6.21875 6.27734C7.79167 4.70443 9.71354 3.91797 11.9844 3.91797C14.2552 3.91797 16.1771 4.70443 17.75 6.27734C19.3229 7.85026 20.1094 9.77214 20.1094 12.043C20.1094 12.9596 19.9635 13.8242 19.6719 14.6367C19.3802 15.4492 18.9844 16.168 18.4844 16.793L26.3594 24.668L24.6094 26.418ZM11.9844 17.668C13.5469 17.668 14.875 17.1211 15.9688 16.0273C17.0625 14.9336 17.6094 13.6055 17.6094 12.043C17.6094 10.4805 17.0625 9.15234 15.9688 8.05859C14.875 6.96484 13.5469 6.41797 11.9844 6.41797C10.4219 6.41797 9.09375 6.96484 8 8.05859C6.90625 9.15234 6.35938 10.4805 6.35938 12.043C6.35938 13.6055 6.90625 14.9336 8 16.0273C9.09375 17.1211 10.4219 17.668 11.9844 17.668Z" fill="#F3F3F4" fill-opacity="0.7"/>
</svg>
