<svg width="31" height="31" viewBox="0 0 31 31" fill="none" xmlns="http://www.w3.org/2000/svg">
<path d="M13.9453 23.918H16.4453V18.6992L18.4453 20.6992L20.1953 18.918L15.1953 13.918L10.1953 18.918L11.9766 20.668L13.9453 18.6992V23.918ZM7.69531 27.668C7.00781 27.668 6.41927 27.4232 5.92969 26.9336C5.4401 26.444 5.19531 25.8555 5.19531 25.168V5.16797C5.19531 4.48047 5.4401 3.89193 5.92969 3.40234C6.41927 2.91276 7.00781 2.66797 7.69531 2.66797H17.6953L25.1953 10.168V25.168C25.1953 25.8555 24.9505 26.444 24.4609 26.9336C23.9714 27.4232 23.3828 27.668 22.6953 27.668H7.69531ZM16.4453 11.418V5.16797H7.69531V25.168H22.6953V11.418H16.4453Z" fill="#F3F3F4"/>
</svg>
